<?xml version="1.0" encoding="utf-8"?>
<!-- Generator: Adobe Illustrator 15.0.0, SVG Export Plug-In . SVG Version: 6.00 Build 0)  -->
<!DOCTYPE svg PUBLIC "-//W3C//DTD SVG 1.1//EN" "http://www.w3.org/Graphics/SVG/1.1/DTD/svg11.dtd">
<svg version="1.1" id="Layer_1" xmlns="http://www.w3.org/2000/svg" xmlns:xlink="http://www.w3.org/1999/xlink" x="0px" y="0px"
	 width="100px" height="71px" viewBox="370.945 262.14 100 71" enable-background="new 370.945 262.14 100 71" xml:space="preserve"
	>
<g>
	<g>
		<path fill="#006C32" d="M434.874,291.277c-0.708,0-1.344,0.071-1.98,0.212l0,0l0,0c-0.211,0.071-0.354,0.071-0.564,0.142
			c-0.071,0-0.071,0-0.143,0c-0.142,0.071-0.282,0.071-0.424,0.141c-0.071,0-0.071,0-0.142,0.071
			c-0.141,0.071-0.283,0.071-0.424,0.142c-0.07,0-0.07,0-0.142,0.071c-0.142,0.07-0.282,0.141-0.424,0.212h-0.071
			c-1.555,0.707-2.899,1.839-3.889,3.253l0,0l0,0c-0.283,0.424-0.565,0.848-0.778,1.272l0,0c-0.212,0.424-0.424,0.919-0.565,1.343
			v0.071c-0.07,0.213-0.142,0.424-0.212,0.707v0.07c-0.07,0.213-0.07,0.425-0.142,0.638v0.069c-0.07,0.213-0.07,0.496-0.07,0.707
			c0,0.071,0,0.071,0,0.143c0,0.211,0,0.495,0,0.707c0,0.211,0,0.495,0,0.707c0,0.07,0,0.07,0,0.142c0,0.211,0.07,0.494,0.07,0.707
			v0.07c0.071,0.212,0.071,0.424,0.142,0.637v0.07c0.07,0.212,0.142,0.495,0.212,0.707v0.07c0.142,0.495,0.354,0.92,0.565,1.344l0,0
			c0.213,0.424,0.495,0.849,0.778,1.272l0,0l0,0c0.566,0.778,1.202,1.485,1.98,2.051l0,0l0,0c0.564,0.495,1.272,0.849,1.908,1.202
			h0.071c0.142,0.07,0.282,0.142,0.424,0.213c0.071,0,0.071,0,0.142,0.069c0.141,0.071,0.283,0.071,0.354,0.142
			c0.07,0,0.07,0,0.141,0.071c0.142,0.071,0.283,0.071,0.425,0.141c0.071,0,0.071,0,0.142,0.071c0.212,0.07,0.354,0.07,0.565,0.142
			l0,0l0,0c0.636,0.141,1.343,0.212,1.98,0.212c5.515,0,10.04-4.525,10.04-10.04C444.914,295.802,440.389,291.277,434.874,291.277z
			 M434.026,307.469c-0.282,0.354-0.778,0.564-1.202,0.564l0,0c-0.141,0-0.354,0-0.494-0.07c0,0,0,0-0.071,0s-0.142-0.07-0.213-0.07
			c-0.07-0.071-0.141-0.071-0.212-0.142l-3.182-2.688l0,0l-1.979-1.768l0,0l-0.495-0.424c-0.637-0.565-0.777-1.556-0.212-2.191
			c0.07-0.071,0.142-0.142,0.212-0.213l0.07-0.071c0.071,0,0.071-0.069,0.142-0.069c0.071,0,0.142-0.071,0.142-0.071
			c0.565-0.213,1.202-0.142,1.626,0.212l4.526,3.748l7.141-7.99c0.565-0.637,1.556-0.707,2.264-0.142
			c0.636,0.565,0.706,1.556,0.141,2.263L434.026,307.469z"/>
		<path fill="#545758" d="M407.369,299.903h15.061c0.354-3.182,1.979-6.01,4.242-7.99v-5.798h-23.263v30.758h23.263v-6.011
			c-2.404-2.121-4.031-5.091-4.313-8.484h-14.99c-0.707,0-1.202-0.566-1.202-1.202C406.167,300.397,406.661,299.903,407.369,299.903
			z M407.369,308.6h15.343c0.707,0,1.202,0.565,1.202,1.201c0,0.707-0.566,1.202-1.202,1.202h-15.343
			c-0.707,0-1.202-0.564-1.202-1.202C406.167,309.166,406.661,308.6,407.369,308.6z M407.369,291.135h15.343
			c0.707,0,1.202,0.565,1.202,1.202c0,0.707-0.566,1.202-1.202,1.202h-15.343c-0.707,0-1.202-0.565-1.202-1.202
			C406.167,291.701,406.661,291.135,407.369,291.135z"/>
		<path fill="#545758" d="M428.652,318.782h-27.222v-34.647h27.222v6.364c1.272-0.707,2.687-1.202,4.172-1.484v-8.344
			c0-0.849-0.707-1.556-1.556-1.556h-7v-1.485c0-0.778-0.636-1.344-1.343-1.344h-0.708v-2.192c0-1.414-1.131-2.616-2.616-2.616
			h-9.404c-1.414,0-2.616,1.131-2.616,2.616v2.192h-0.707c-0.778,0-1.344,0.637-1.344,1.344v1.485h-7
			c-0.848,0-1.555,0.707-1.555,1.556v41.505c0,0.85,0.707,1.557,1.555,1.557h32.667c0.848,0,1.555-0.707,1.555-1.557v-8.484
			c-1.484-0.212-2.898-0.777-4.171-1.484v6.575H428.652L428.652,318.782z M410.055,274.094c0-0.07,0.071-0.141,0.142-0.141h9.404
			c0.071,0,0.142,0.071,0.142,0.141v2.192h-9.687V274.094L410.055,274.094z"/>
	</g>
</g>
</svg>
